<?xml version="1.0" encoding="utf-8"?>
<!-- Generator: Adobe Illustrator 27.3.1, SVG Export Plug-In . SVG Version: 6.00 Build 0)  -->
<svg version="1.1" id="Layer_2" xmlns="http://www.w3.org/2000/svg" xmlns:xlink="http://www.w3.org/1999/xlink" x="0px" y="0px"
	 viewBox="0 0 355.5 126.5" style="enable-background:new 0 0 355.5 126.5;" xml:space="preserve">
<style type="text/css">
	.st0{fill:#993399;}
</style>
<g>
	<path class="st0" d="M113.37,87.82c-0.99-2.52-2.13-4.97-3.25-7.43c-8.9-19.39-18.24-38.57-28-57.54
		c-1.37-2.65-2.72-5.32-4.17-7.92c-1.43-2.54-3.09-5-5.24-6.99c-3.43-3.27-8.03-5.22-12.75-5.51h-2.17
		c-4.86,0.24-9.61,2.28-13.09,5.68c-2.07,1.96-3.67,4.35-5.06,6.83c-1.43,2.57-2.76,5.19-4.11,7.8
		c-6.56,12.72-12.92,25.55-19.08,38.46c-3.68,7.73-7.32,15.47-10.83,23.28c-1.45,3.25-2.77,6.62-3.26,10.17
		c-0.92,5.99,0.4,12.29,3.6,17.43c2.76,4.47,6.9,8.07,11.73,10.16c3.75,1.62,7.9,2.36,11.98,2.12c5.48-0.29,10.77-2.26,15.41-5.14
		c5.17-3.18,9.6-7.4,13.72-11.82c3.83,4.13,7.93,8.07,12.67,11.16c4.57,3.01,9.79,5.19,15.27,5.7c5.96,0.62,12.12-0.85,17.12-4.17
		c4.4-2.9,7.87-7.17,9.81-12.06c1.26-3.17,1.9-6.59,1.84-10C115.46,94.52,114.64,91.07,113.37,87.82z M107.21,103.97
		c-1.32,4.55-4.49,8.52-8.63,10.82c-3.67,2.05-8.06,2.76-12.2,2.07c-5.28-0.82-10.01-3.62-14.11-6.92
		c-3.01-2.42-5.73-5.19-8.33-8.04c4.11-5.19,7.97-10.62,10.93-16.56c1.36-2.74,2.54-5.6,3.38-8.55h-8.23
		c-0.06,0.17-0.12,0.34-0.18,0.51c-2.57,6.74-6.63,12.77-11.02,18.44c-1.5-1.76-2.81-3.66-4.14-5.55
		c-2.23-3.26-4.25-6.68-5.88-10.28c-0.45-1.02-0.87-2.06-1.25-3.11h-8.22c0.48,1.67,1.06,3.31,1.71,4.91
		c3.08,7.34,7.6,13.98,12.59,20.14c-2.24,2.6-4.7,5.02-7.31,7.26c-4.05,3.43-8.69,6.41-13.94,7.55c-4.25,0.95-8.83,0.48-12.72-1.49
		c-4.56-2.27-8.06-6.55-9.38-11.47c-1.01-3.62-0.79-7.52,0.41-11.06c1-2.93,2.35-5.72,3.62-8.54c8.8-19.18,18.04-38.16,27.69-56.93
		c1.44-2.79,2.86-5.6,4.38-8.35c1.24-2.21,2.69-4.39,4.74-5.94c2.19-1.71,4.97-2.65,7.75-2.58c2.88-0.03,5.74,1.03,7.95,2.88
		c2.18,1.81,3.65,4.28,4.97,6.74c2.98,5.6,5.85,11.28,8.72,16.94c8.18,16.2,16.05,32.55,23.58,49.05c1.14,2.56,2.36,5.11,3.12,7.81
		C108.15,97.04,108.18,100.64,107.21,103.97z"/>
	<g>
		<path class="st0" d="M184.7,31.35c3.57-0.81,7.46,1.55,8.39,5.08c1.15,3.62-1.14,7.84-4.78,8.88c-3.56,1.25-7.78-0.92-8.96-4.48
			c-1.12-2.99,0.08-6.61,2.73-8.38C182.87,31.92,183.77,31.55,184.7,31.35L184.7,31.35z"/>
		<path class="st0" d="M208.79,54.73c2.15-2.34,5.17-3.8,8.29-4.26c2.07-0.2,4.19-0.07,6.22,0.39c-0.03,3.29-0.01,6.57-0.01,9.86
			c-3.2-0.83-6.66-1-9.8,0.16c-1.7,0.62-3.25,1.63-4.49,2.95c-0.27,0.23-0.2,0.6-0.23,0.92c0.02,9.18-0.01,18.37,0.01,27.55
			c-0.03,0.35,0.05,0.75-0.1,1.08c-3.55,0.08-7.1,0.02-10.64,0.03c0-14-0.01-28,0.01-42.01c2.99,0.01,5.98-0.01,8.97,0.01
			c0.66-0.04,1.36,0.3,1.6,0.94C208.85,53.12,208.77,53.94,208.79,54.73L208.79,54.73z"/>
		<path class="st0" d="M279.47,54.77c2.84-2.94,6.95-4.38,10.99-4.39c4.27-0.11,8.64,1.15,11.93,3.92c2.18,1.7,3.78,4.11,4.51,6.78
			c0.94,3.27,0.85,6.71,0.84,10.08c0,7.42,0,14.84,0,22.25c-3.58-0.01-7.15,0.02-10.73-0.02c0-7.41,0-14.83,0-22.24
			c0-2.75,0.13-5.73-1.33-8.18c-1.02-1.76-3.04-2.64-4.99-2.84c-3.71-0.59-7.58,0.88-10.14,3.58c-0.27,0.27-0.5,0.62-0.48,1.03
			c-0.03,1.15,0.14,2.3,0.04,3.44c-0.14,1.56,0.08,3.12,0.03,4.68c-0.05,2.95-0.04,5.89-0.01,8.84c-0.2,3.9,0.15,7.81-0.08,11.7
			c-3.56-0.01-7.12,0-10.68,0c0-14.01-0.03-28.01,0.01-42.02c2.75,0.02,5.51,0,8.27,0.01c0.71-0.05,1.49,0.35,1.68,1.08
			C279.5,53.23,279.45,54.01,279.47,54.77L279.47,54.77z"/>
		<path class="st0" d="M180.78,93.42c0-14.01-0.02-28.01,0.01-42.02c3.55,0.01,7.1,0.01,10.64,0c0.03,14.01,0.01,28.01,0.01,42.01
			C187.89,93.42,184.33,93.42,180.78,93.42L180.78,93.42z"/>
		<path class="st0" d="M174.17,51.41c-2.81-0.01-5.63,0.01-8.44-0.02c-0.74,0-1.69,0.03-2.06,0.81c-0.33,0.8-0.2,1.69-0.23,2.54
			c-2.34-2.49-5.64-3.97-9.02-4.29c-5.23-0.47-10.64,0.98-14.84,4.15c-3.46,2.55-6.01,6.25-7.35,10.31
			c-0.64,1.91-0.97,3.91-1.17,5.91v2.88c0.3,6.02,2.98,11.97,7.65,15.86c3.52,2.99,8.05,4.65,12.64,4.94h2.39
			c3.64-0.24,7.23-1.75,9.71-4.46c0.02,0.85-0.1,1.75,0.22,2.56c0.33,0.66,1.11,0.84,1.79,0.81c2.9-0.01,5.81,0,8.71-0.01
			C174.17,79.41,174.18,65.41,174.17,51.41z M163.11,80.33c-2.17,2.6-5.56,4.14-8.95,4.03c-3.63,0.03-7.4-1.36-9.75-4.21
			c-2.29-2.72-2.99-6.5-2.47-9.95c0.39-2.8,1.81-5.48,4.07-7.21c2.04-1.61,4.62-2.44,7.2-2.62c3.84-0.34,7.89,1.36,10.2,4.46
			c0.13,4.56,0,9.14,0.06,13.72C163.43,79.14,163.6,79.86,163.11,80.33z"/>
		<path class="st0" d="M256.57,79.03l-0.82,1c-2.12,2.59-4.88,3.87-8.45,3.91l0,0c-3.36,0.06-5.97-0.77-7.7-2.45
			c-1.96-1.91-2.99-5.04-3.05-9.29c0.06-4.1,0.99-7.16,2.77-9.1c1.72-1.88,4.25-2.79,7.7-2.79c0.09,0,0.18,0,0.27,0
			c3.57,0.1,6.35,1.4,8.47,3.96l0.82,0.99l8.97-7.22l-0.94-1.02c-2.13-2.32-4.67-4.21-7.56-5.6c-2.9-1.37-6.28-2.09-10.06-2.15
			c-5.76-0.01-10.91,1.72-15.26,5.27c-4.59,3.67-6.98,9.6-7.1,17.66c0.13,7.94,2.52,13.8,7.09,17.41c4.36,3.56,9.49,5.36,15.27,5.36
			c3.79-0.06,7.18-0.82,10.07-2.26c2.87-1.38,5.41-3.19,7.53-5.39l0.99-1.02L256.57,79.03z"/>
		<path class="st0" d="M344.86,79.68l-0.82,1c-2.12,2.59-4.88,3.87-8.45,3.91l0,0c-3.36,0.06-5.97-0.77-7.7-2.45
			c-1.96-1.91-2.99-5.04-3.05-9.29c0.06-4.1,0.99-7.16,2.77-9.1c1.72-1.88,4.25-2.79,7.7-2.79c0.09,0,0.18,0,0.27,0
			c3.57,0.1,6.35,1.4,8.47,3.96l0.82,0.99l8.97-7.22l-0.94-1.02c-2.13-2.32-4.67-4.21-7.56-5.6c-2.9-1.37-6.28-2.09-10.06-2.15
			c-5.76-0.01-10.91,1.72-15.26,5.27c-4.59,3.67-6.98,9.6-7.1,17.66c0.13,7.94,2.52,13.8,7.09,17.41c4.36,3.56,9.49,5.36,15.27,5.36
			c3.79-0.06,7.18-0.82,10.07-2.26c2.87-1.38,5.41-3.19,7.53-5.39l0.99-1.02L344.86,79.68z"/>
	</g>
	<g>
		<path class="st0" d="M75.69,73.59H41.22c-2.59,0-4.92-1.25-6.21-3.35c-1.3-2.1-1.3-4.6,0-6.69l17.23-27.86
			c1.3-2.1,3.62-3.35,6.21-3.35c2.59,0,4.92,1.25,6.21,3.35L81.9,63.55c1.3,2.1,1.3,4.6,0,6.69C80.6,72.34,78.28,73.59,75.69,73.59z
			 M42.8,66.04h31.3l-15.65-25.3L42.8,66.04z M57.66,39.47C57.66,39.47,57.66,39.47,57.66,39.47L57.66,39.47z"/>
	</g>
</g>
</svg>
